<svg xmlns="http://www.w3.org/2000/svg" xmlns:xlink="http://www.w3.org/1999/xlink" width="1920" zoomAndPan="magnify" viewBox="0 0 1440 809.999993" height="1080" preserveAspectRatio="xMidYMid meet" version="1.0"><defs><g/></defs><path fill="#999999" d="M 904.867188 735.503906 C 913.328125 693.570312 760.941406 443.933594 760.941406 443.933594 L 667.796875 499.121094 C 667.796875 499.121094 674.992188 712.15625 694.984375 742.039062 C 714.976562 771.925781 720.179688 730.027344 720.179688 730.027344 C 720.179688 730.027344 740.75 793.917969 764.117188 801.917969 C 787.484375 809.917969 782.625 754.773438 782.625 754.773438 C 782.625 754.773438 787.011719 797.007812 813.613281 799.6875 C 840.210938 802.375 828.835938 752.890625 828.835938 752.890625 C 828.835938 752.890625 839.882812 782.1875 866.1875 775.386719 C 892.496094 768.585938 869.914062 723.289062 869.914062 723.289062 C 869.914062 723.289062 896.40625 777.445312 904.867188 735.511719 Z M 904.867188 735.503906 " fill-opacity="1" fill-rule="nonzero"/><path fill="#999999" d="M 378.289062 424.457031 C 378.289062 424.457031 408.101562 437.691406 454.773438 436.863281 C 501.441406 436.042969 551.730469 408.878906 551.730469 408.878906 L 513.09375 217.398438 C 513.09375 217.398438 262.8125 230.078125 106 164.589844 C 128.769531 211 169.679688 224.0625 169.679688 224.0625 C 169.679688 224.0625 130.714844 229.804688 117.417969 223.539062 C 128.417969 252.085938 164.277344 262.535156 164.277344 262.535156 L 140.710938 270.328125 C 140.710938 270.328125 170.328125 296.480469 195.03125 298.761719 C 219.726562 301.042969 242.425781 306.335938 242.425781 306.335938 L 206.21875 313.183594 C 206.21875 313.183594 228.648438 330.84375 258.15625 333.308594 C 287.667969 335.769531 312.800781 340.71875 312.800781 340.71875 L 271.691406 353.734375 C 271.691406 353.734375 303.21875 379.277344 341.15625 377.945312 C 332.972656 394.589844 320.550781 396.292969 320.550781 396.292969 C 320.550781 396.292969 361.269531 414.269531 397.316406 409.269531 C 394.585938 420.996094 378.289062 424.457031 378.289062 424.457031 Z M 378.289062 424.457031 " fill-opacity="1" fill-rule="nonzero"/><path fill="#999999" d="M 731.605469 546.863281 C 753.710938 577.554688 774.121094 492.855469 768.523438 420.953125 C 762.929688 349.046875 754.101562 272.519531 634.402344 148.234375 C 604.332031 75.640625 548.070312 66.632812 503.238281 101.582031 C 458.402344 136.523438 482.703125 203.921875 496.042969 255.714844 C 509.382812 307.507812 492.066406 332.648438 567.6875 427.914062 C 643.308594 523.179688 709.5 516.179688 731.613281 546.863281 Z M 731.605469 546.863281 " fill-opacity="1" fill-rule="nonzero"/><path fill="#333632" d="M 581.910156 129.816406 C 582.457031 123.28125 577.597656 117.539062 571.0625 116.992188 C 564.53125 116.445312 558.785156 121.304688 558.238281 127.839844 C 557.691406 134.371094 562.550781 140.117188 569.085938 140.65625 C 575.621094 141.199219 581.363281 136.34375 581.910156 129.808594 Z M 581.910156 129.816406 " fill-opacity="1" fill-rule="nonzero"/><path fill="#ffd42a" d="M 580.109375 128.828125 C 580.109375 129.484375 580.042969 130.136719 579.914062 130.785156 C 579.785156 131.429688 579.597656 132.058594 579.34375 132.667969 C 579.089844 133.277344 578.78125 133.855469 578.417969 134.402344 C 578.050781 134.949219 577.632812 135.457031 577.167969 135.921875 C 576.703125 136.386719 576.195312 136.804688 575.648438 137.167969 C 575.101562 137.535156 574.523438 137.84375 573.914062 138.097656 C 573.304688 138.347656 572.679688 138.539062 572.03125 138.667969 C 571.386719 138.796875 570.734375 138.859375 570.074219 138.859375 C 569.414062 138.859375 568.761719 138.796875 568.117188 138.667969 C 567.472656 138.539062 566.84375 138.347656 566.234375 138.097656 C 565.625 137.84375 565.046875 137.535156 564.5 137.167969 C 563.953125 136.804688 563.445312 136.386719 562.980469 135.921875 C 562.515625 135.457031 562.097656 134.949219 561.730469 134.402344 C 561.367188 133.855469 561.058594 133.277344 560.804688 132.667969 C 560.554688 132.058594 560.363281 131.429688 560.234375 130.785156 C 560.105469 130.136719 560.042969 129.484375 560.042969 128.828125 C 560.042969 128.167969 560.105469 127.515625 560.234375 126.871094 C 560.363281 126.222656 560.554688 125.597656 560.804688 124.988281 C 561.058594 124.378906 561.367188 123.800781 561.730469 123.253906 C 562.097656 122.707031 562.515625 122.199219 562.980469 121.734375 C 563.445312 121.265625 563.953125 120.851562 564.5 120.484375 C 565.046875 120.117188 565.625 119.808594 566.234375 119.558594 C 566.84375 119.304688 567.472656 119.117188 568.117188 118.988281 C 568.761719 118.859375 569.414062 118.792969 570.074219 118.792969 C 570.734375 118.792969 571.386719 118.859375 572.03125 118.988281 C 572.679688 119.117188 573.304688 119.304688 573.914062 119.558594 C 574.523438 119.808594 575.101562 120.117188 575.648438 120.484375 C 576.195312 120.851562 576.703125 121.265625 577.167969 121.734375 C 577.632812 122.199219 578.050781 122.707031 578.417969 123.253906 C 578.78125 123.800781 579.089844 124.378906 579.34375 124.988281 C 579.597656 125.597656 579.785156 126.222656 579.914062 126.871094 C 580.042969 127.515625 580.109375 128.167969 580.109375 128.828125 Z M 580.109375 128.828125 " fill-opacity="1" fill-rule="nonzero"/><path fill="#333632" d="M 576.59375 128.828125 C 576.59375 129.253906 576.554688 129.679688 576.46875 130.097656 C 576.386719 130.519531 576.261719 130.925781 576.097656 131.324219 C 575.933594 131.71875 575.734375 132.09375 575.496094 132.449219 C 575.257812 132.804688 574.988281 133.136719 574.683594 133.4375 C 574.382812 133.742188 574.054688 134.011719 573.695312 134.25 C 573.339844 134.488281 572.964844 134.6875 572.570312 134.851562 C 572.175781 135.015625 571.765625 135.140625 571.347656 135.222656 C 570.925781 135.304688 570.503906 135.347656 570.074219 135.347656 C 569.644531 135.347656 569.222656 135.304688 568.800781 135.222656 C 568.382812 135.140625 567.972656 135.015625 567.578125 134.851562 C 567.183594 134.6875 566.808594 134.488281 566.453125 134.25 C 566.09375 134.011719 565.765625 133.742188 565.464844 133.4375 C 565.160156 133.136719 564.890625 132.804688 564.652344 132.449219 C 564.414062 132.09375 564.214844 131.71875 564.050781 131.324219 C 563.886719 130.925781 563.761719 130.519531 563.679688 130.097656 C 563.59375 129.679688 563.554688 129.253906 563.554688 128.828125 C 563.554688 128.398438 563.59375 127.976562 563.679688 127.554688 C 563.761719 127.136719 563.886719 126.726562 564.050781 126.332031 C 564.214844 125.9375 564.414062 125.558594 564.652344 125.203125 C 564.890625 124.847656 565.160156 124.519531 565.464844 124.214844 C 565.765625 123.914062 566.09375 123.644531 566.453125 123.40625 C 566.808594 123.167969 567.183594 122.964844 567.578125 122.800781 C 567.972656 122.640625 568.382812 122.515625 568.800781 122.433594 C 569.222656 122.347656 569.644531 122.304688 570.074219 122.304688 C 570.503906 122.304688 570.925781 122.347656 571.347656 122.433594 C 571.765625 122.515625 572.175781 122.640625 572.570312 122.800781 C 572.964844 122.964844 573.339844 123.167969 573.695312 123.40625 C 574.054688 123.644531 574.382812 123.914062 574.683594 124.214844 C 574.988281 124.519531 575.257812 124.847656 575.496094 125.203125 C 575.734375 125.558594 575.933594 125.9375 576.097656 126.332031 C 576.261719 126.726562 576.386719 127.136719 576.46875 127.554688 C 576.554688 127.976562 576.59375 128.398438 576.59375 128.828125 Z M 576.59375 128.828125 " fill-opacity="1" fill-rule="nonzero"/><path fill="#ffd42a" d="M 534.953125 137.480469 C 527.816406 130.25 516.242188 129.605469 498.902344 140.941406 C 481.566406 152.28125 463.300781 164.714844 463.957031 190.425781 C 473.3125 183.175781 504.882812 176.847656 526.660156 173.671875 C 548.433594 170.496094 548.464844 151.167969 534.953125 137.480469 Z M 534.953125 137.480469 " fill-opacity="1" fill-rule="nonzero"/><path fill="#999999" d="M 1018.699219 0 C 1018.699219 0 1005.621094 17.4375 978.679688 49.949219 C 923.914062 126.84375 647.1875 192.359375 647.1875 192.359375 C 646.503906 284.734375 750.996094 370.195312 750.996094 370.195312 C 750.996094 370.195312 835.566406 350.054688 883.738281 344.316406 C 931.914062 338.578125 1011.730469 320.234375 1019.378906 320.546875 C 1027.023438 320.855469 1017.699219 318.320312 974.695312 305.414062 C 999.039062 300.101562 1067.378906 274.769531 1067.378906 274.769531 C 1067.378906 274.769531 1056.273438 273.84375 1024.046875 264.574219 C 1051.523438 261.160156 1094.507812 241.394531 1094.507812 241.394531 C 1094.507812 241.394531 1069.835938 240.097656 1056.078125 220.972656 C 1091.277344 214.371094 1127.058594 190.269531 1127.058594 190.269531 C 1127.058594 190.269531 1094.347656 195.980469 1067.914062 178.980469 C 1099.117188 163.820312 1131.148438 130.75 1131.148438 130.75 C 1131.148438 130.75 1085.8125 140.5625 1070.59375 131.070312 C 1093.273438 116.84375 1111.664062 64.542969 1111.664062 64.542969 C 1111.664062 64.542969 1088.019531 86.476562 1050.398438 87.941406 C 1069.625 63.78125 1083.140625 14.800781 1083.140625 14.800781 C 1083.140625 14.800781 1042.933594 53.875 1016.699219 56.84375 C 1032.90625 22.886719 1018.699219 -0.0078125 1018.699219 -0.0078125 Z M 1018.699219 0 " fill-opacity="1" fill-rule="nonzero"/><path fill="#bdbdbd" d="M 559.996094 294.640625 C 541.03125 308.253906 509.886719 280.078125 509.886719 280.078125 C 509.886719 280.078125 509.085938 299.464844 507.941406 323.242188 C 514.457031 348.34375 528.679688 378.78125 567.679688 427.914062 C 595.765625 463.289062 622.539062 484.542969 646.25 498.878906 C 652.464844 494.714844 658.191406 489.839844 662.972656 484.183594 C 722.535156 508.066406 719.976562 484.90625 731.402344 452.058594 C 747.875 466.011719 760.277344 463.03125 769.296875 454.195312 C 769.5625 443.117188 769.375 431.90625 768.523438 420.964844 C 764.109375 364.207031 757.441406 304.457031 696.054688 220.722656 C 687.132812 233.027344 673.328125 243.890625 653.515625 238.714844 C 642.980469 279.546875 576.046875 264.039062 576.046875 264.039062 C 576.046875 264.039062 578.96875 281.027344 560.003906 294.640625 Z M 559.996094 294.640625 " fill-opacity="1" fill-rule="nonzero"/><path fill="#999999" d="M 616 464.445312 C 612.644531 466.859375 608.925781 467.753906 604.617188 467.628906 C 609.566406 472.125 614.453125 476.328125 619.238281 480.113281 C 621.191406 479.253906 623.105469 478.203125 624.933594 476.890625 C 638.222656 467.355469 644.398438 456.011719 646.859375 447.078125 C 647.492188 444.773438 647.4375 443.167969 647.671875 441.183594 C 655.773438 442.597656 668.335938 444.324219 684.828125 443.207031 C 696.867188 442.386719 709.644531 439.917969 720.832031 433.730469 C 730.21875 428.542969 738.175781 420.222656 742.832031 408.984375 C 751.722656 410.191406 759.976562 409.222656 767.28125 406.660156 C 766.808594 401.402344 766.316406 396.136719 765.695312 390.785156 C 758.460938 394.351562 750.335938 395.757812 739.855469 393.015625 C 735.765625 391.945312 731.582031 394.394531 730.511719 398.492188 C 730.511719 398.496094 730.511719 398.511719 730.503906 398.515625 C 727.714844 409.328125 721.722656 415.742188 713.429688 420.328125 C 705.136719 424.917969 694.414062 427.191406 683.785156 427.917969 C 662.523438 429.367188 642.351562 424.773438 642.351562 424.773438 C 638.230469 423.816406 634.121094 426.382812 633.164062 430.5 C 632.933594 431.496094 632.902344 432.519531 633.078125 433.527344 C 633.078125 433.527344 633.753906 436.996094 632.101562 443.007812 C 630.441406 449.019531 626.539062 456.886719 616.007812 464.445312 Z M 616 464.445312 " fill-opacity="1" fill-rule="nonzero"/><path fill="#999999" d="M 571.621094 338.410156 C 567.488281 341.375 562.863281 342.132812 557.1875 341.394531 C 551.511719 340.65625 545.117188 338.199219 539.246094 335.117188 C 527.515625 328.945312 518.285156 320.664062 518.285156 320.664062 C 515.351562 318.070312 510.9375 318.113281 508.046875 320.757812 C 507.984375 322.09375 508.003906 321.875 507.9375 323.242188 C 510.398438 332.714844 513.960938 342.953125 519.535156 354.667969 C 519.691406 351.003906 520.019531 343.90625 520.144531 340.996094 C 523.8125 343.550781 527.324219 346.15625 532.109375 348.675781 C 539.003906 352.296875 546.84375 355.492188 555.203125 356.582031 C 563.566406 357.667969 572.765625 356.433594 580.550781 350.851562 C 593.839844 341.3125 600.011719 329.96875 602.472656 321.035156 C 603.109375 318.730469 603.050781 317.121094 603.289062 315.136719 C 611.386719 316.546875 623.953125 318.277344 640.441406 317.15625 C 652.484375 316.335938 665.265625 313.875 676.453125 307.691406 C 685.839844 302.5 693.796875 294.183594 698.453125 282.9375 C 709.847656 284.484375 720.253906 282.542969 728.863281 278.136719 C 729.699219 277.707031 730.449219 277.203125 731.246094 276.738281 C 728.945312 272.324219 726.496094 267.84375 723.886719 263.285156 C 723.214844 263.683594 722.578125 264.15625 721.890625 264.511719 C 714.515625 268.285156 706.222656 269.796875 695.476562 266.984375 C 691.386719 265.914062 687.203125 268.367188 686.132812 272.457031 C 686.132812 272.460938 686.132812 272.46875 686.132812 272.472656 C 683.34375 283.285156 677.351562 289.699219 669.058594 294.289062 C 660.765625 298.875 650.054688 301.164062 639.421875 301.890625 C 618.164062 303.339844 597.980469 298.738281 597.980469 298.738281 C 593.859375 297.78125 589.75 300.347656 588.792969 304.464844 C 588.5625 305.457031 588.53125 306.488281 588.703125 307.496094 C 588.703125 307.496094 589.386719 310.960938 587.730469 316.972656 C 586.070312 322.980469 582.171875 330.859375 571.636719 338.417969 Z M 571.621094 338.410156 " fill-opacity="1" fill-rule="nonzero"/><path fill="#999999" d="M 750.148438 320.296875 C 747.9375 322.042969 745.648438 323.652344 743.210938 324.902344 C 735.839844 328.675781 727.554688 330.179688 716.804688 327.371094 C 712.714844 326.300781 708.53125 328.75 707.460938 332.839844 C 707.460938 332.847656 707.460938 332.851562 707.460938 332.859375 C 704.671875 343.667969 698.679688 350.089844 690.386719 354.679688 C 682.09375 359.265625 671.371094 361.542969 660.738281 362.269531 C 639.480469 363.71875 619.300781 359.117188 619.300781 359.117188 C 615.179688 358.160156 611.066406 360.722656 610.109375 364.84375 C 609.878906 365.835938 609.847656 366.875 610.019531 367.882812 C 610.019531 367.882812 610.703125 371.339844 609.042969 377.351562 C 607.386719 383.359375 603.480469 391.242188 592.945312 398.800781 C 588.808594 401.769531 584.191406 402.527344 578.515625 401.785156 C 572.839844 401.046875 566.4375 398.597656 560.570312 395.515625 C 548.839844 389.339844 539.609375 381.054688 539.609375 381.054688 C 537.804688 379.613281 535.449219 379.066406 533.191406 379.558594 C 538.667969 388.457031 545.296875 398.207031 553.140625 408.878906 C 553.253906 408.933594 553.328125 408.996094 553.441406 409.054688 C 560.332031 412.675781 568.179688 415.878906 576.535156 416.964844 C 584.894531 418.054688 594.089844 416.824219 601.871094 411.242188 C 615.160156 401.707031 621.335938 390.359375 623.796875 381.429688 C 624.429688 379.121094 624.375 377.511719 624.609375 375.527344 C 632.710938 376.941406 645.265625 378.667969 661.757812 377.550781 C 673.800781 376.726562 686.582031 374.265625 697.769531 368.082031 C 707.15625 362.890625 715.113281 354.5625 719.769531 343.320312 C 731.164062 344.871094 741.582031 342.929688 750.1875 338.523438 C 751.863281 337.664062 753.457031 336.714844 754.980469 335.699219 C 753.53125 330.640625 751.953125 325.519531 750.144531 320.289062 Z M 750.148438 320.296875 " fill-opacity="1" fill-rule="nonzero"/><path fill="#333632" d="M 697.160156 706.710938 C 690.933594 704.128906 685.910156 697.191406 681.882812 688.234375 C 685.457031 713.894531 689.769531 734.25 694.984375 742.039062 C 714.976562 771.925781 720.179688 730.027344 720.179688 730.027344 C 720.179688 730.027344 740.742188 793.917969 764.109375 801.914062 C 787.476562 809.90625 782.625 754.769531 782.625 754.769531 C 782.625 754.769531 787.003906 797.003906 813.613281 799.6875 C 840.210938 802.371094 828.835938 752.890625 828.835938 752.890625 C 828.835938 752.890625 839.882812 782.183594 866.1875 775.382812 C 892.496094 768.582031 869.914062 723.28125 869.914062 723.28125 C 869.914062 723.28125 896.40625 777.433594 904.867188 735.496094 C 907.757812 721.167969 891.714844 682.441406 869.539062 637.851562 C 871.269531 652.441406 871.421875 663.144531 868.445312 664.699219 C 857.425781 670.449219 805.839844 573.109375 805.839844 573.109375 C 805.839844 573.109375 856.535156 703.402344 843.585938 698.753906 C 830.636719 694.109375 801.6875 632.152344 801.6875 632.152344 C 801.6875 632.152344 817.199219 728.800781 804.273438 720.125 C 791.351562 711.445312 766.164062 650.894531 766.164062 650.894531 C 766.164062 650.894531 781.574219 748.78125 766.148438 738.5 C 750.726562 728.21875 709.753906 618.898438 709.753906 618.898438 C 709.753906 618.898438 722.046875 716.992188 697.160156 706.699219 Z M 697.160156 706.710938 " fill-opacity="1" fill-rule="nonzero"/><path fill="#666666" d="M 106 164.589844 C 128.769531 211 169.679688 224.0625 169.679688 224.0625 C 169.679688 224.0625 130.714844 229.804688 117.425781 223.539062 C 128.421875 252.085938 164.277344 262.535156 164.277344 262.535156 L 140.710938 270.324219 C 140.710938 270.324219 170.332031 296.476562 195.03125 298.757812 C 219.726562 301.039062 242.425781 306.328125 242.425781 306.328125 L 206.21875 313.179688 C 206.21875 313.179688 228.648438 330.839844 258.15625 333.300781 C 287.667969 335.761719 312.800781 340.710938 312.800781 340.710938 L 271.695312 353.726562 C 271.695312 353.726562 303.226562 379.269531 341.164062 377.933594 C 332.976562 394.574219 320.558594 396.277344 320.558594 396.277344 C 320.558594 396.277344 361.273438 414.261719 397.324219 409.265625 C 394.59375 420.988281 378.292969 424.449219 378.292969 424.449219 C 378.292969 424.449219 408.109375 437.6875 454.78125 436.859375 C 501.445312 436.039062 551.742188 408.871094 551.742188 408.871094 L 549.398438 397.261719 C 514.363281 411.160156 467.785156 424.863281 460.207031 423.679688 C 449.488281 422.007812 493.589844 393.4375 493.589844 393.4375 C 493.589844 393.4375 405.496094 410.441406 393.320312 394.695312 C 381.140625 378.949219 464.03125 338.878906 464.03125 338.878906 C 464.03125 338.878906 364.363281 373.671875 343.234375 357.488281 C 322.097656 341.308594 420.503906 316.011719 420.503906 316.011719 C 420.503906 316.011719 313.78125 327.582031 302.347656 312.210938 C 290.917969 296.835938 379.570312 276.9375 379.570312 276.9375 C 379.570312 276.9375 238.714844 294.34375 223.421875 278.800781 C 208.121094 263.261719 281.582031 260.085938 281.582031 260.085938 C 281.582031 260.085938 197.652344 256.808594 200.101562 240.421875 C 202.558594 224.035156 320.886719 229.40625 320.886719 229.40625 C 320.886719 229.40625 206.121094 218.441406 167.933594 196.648438 C 158.765625 191.414062 156.421875 186.75 158.09375 182.679688 C 139.984375 177.425781 122.460938 171.457031 106.011719 164.589844 Z M 106 164.589844 " fill-opacity="1" fill-rule="nonzero"/><path fill="#666666" d="M 948.277344 287.847656 C 909.957031 295.503906 839.453125 313.507812 839.453125 313.507812 L 943.351562 315.199219 L 864.332031 347.0625 C 871.207031 345.96875 877.757812 345.03125 883.746094 344.316406 C 931.921875 338.578125 1011.734375 320.234375 1019.382812 320.546875 C 1027.035156 320.855469 1017.707031 318.320312 974.707031 305.414062 C 999.050781 300.101562 1067.394531 274.769531 1067.394531 274.769531 C 1067.394531 274.769531 1056.285156 273.84375 1024.058594 264.574219 C 1051.535156 261.160156 1094.523438 241.394531 1094.523438 241.394531 C 1094.523438 241.394531 1069.847656 240.105469 1056.09375 220.976562 C 1091.289062 214.375 1127.070312 190.277344 1127.070312 190.277344 C 1127.070312 190.277344 1094.355469 195.988281 1067.921875 178.988281 C 1099.121094 163.824219 1131.15625 130.753906 1131.15625 130.753906 C 1131.15625 130.753906 1085.820312 140.570312 1070.601562 131.078125 C 1093.277344 116.847656 1111.679688 64.542969 1111.679688 64.542969 C 1111.679688 64.542969 1088.03125 86.476562 1050.410156 87.941406 C 1069.636719 63.78125 1083.152344 14.792969 1083.152344 14.792969 C 1083.152344 14.792969 1042.945312 53.871094 1016.710938 56.835938 C 1032.917969 22.894531 1018.699219 0 1018.699219 0 C 1018.699219 0 1005.628906 17.4375 978.679688 49.949219 C 974.75 55.460938 969.574219 60.90625 963.542969 66.285156 C 966.484375 71.613281 966.578125 78.261719 960.117188 86.328125 C 940.5625 110.742188 855.039062 145.171875 855.039062 145.171875 C 855.039062 145.171875 961.5 134.820312 998.738281 99.164062 C 1007.746094 130.617188 933.121094 173.859375 945.328125 166.964844 C 957.53125 160.078125 1042.613281 121.585938 1042.613281 121.585938 C 1042.613281 121.585938 1012.335938 177.824219 976.042969 192.789062 C 939.753906 207.75 892.566406 225.054688 892.566406 225.054688 C 892.566406 225.054688 1009.550781 211.242188 1028.082031 199.140625 C 1011.820312 234.226562 937.324219 261.035156 937.324219 261.035156 L 1015.070312 254.800781 C 1015.070312 254.800781 986.59375 280.183594 948.269531 287.839844 Z M 948.277344 287.847656 " fill-opacity="1" fill-rule="nonzero"/><path fill="#ffd42a" d="M 590.085938 442.660156 C 589.34375 447.589844 599.046875 457.769531 601.484375 456.851562 C 603.921875 455.929688 603.679688 448.644531 603.679688 448.644531 C 603.679688 448.644531 624.179688 461.511719 629.914062 469.003906 C 635.644531 476.5 626.28125 471.746094 625.449219 475.488281 C 624.617188 479.230469 637.902344 486.582031 642.375 485.804688 C 646.851562 485.027344 653.914062 474.324219 641.265625 451.175781 C 641.265625 451.175781 617.457031 418.84375 611.1875 422.300781 C 604.921875 425.757812 606.148438 430.132812 606.148438 430.132812 C 606.148438 430.132812 598.496094 426.863281 595.804688 431.246094 C 593.113281 435.628906 595.910156 438.847656 595.910156 438.847656 C 595.910156 438.847656 590.816406 437.734375 590.078125 442.664062 Z M 590.085938 442.660156 " fill-opacity="1" fill-rule="nonzero"/><path fill="#ffd42a" d="M 682.613281 400.902344 C 680.289062 405.3125 686.089844 418.128906 688.6875 418.0625 C 691.292969 417.992188 693.46875 411.042969 693.46875 411.042969 C 693.46875 411.042969 708.574219 429.953125 711.507812 438.921875 C 714.449219 447.894531 707.183594 440.308594 705.160156 443.566406 C 703.140625 446.824219 713.25 458.148438 717.738281 458.894531 C 722.226562 459.640625 732.421875 451.863281 728.117188 425.835938 C 728.117188 425.835938 716.3125 387.457031 709.265625 388.652344 C 702.214844 389.84375 701.921875 394.375 701.921875 394.375 C 701.921875 394.375 695.78125 388.761719 691.789062 392.007812 C 687.800781 395.253906 689.378906 399.21875 689.378906 399.21875 C 689.378906 399.21875 684.941406 396.488281 682.613281 400.898438 Z M 682.613281 400.902344 " fill-opacity="1" fill-rule="nonzero"/><path fill="#333632" d="M 502.765625 138.574219 C 501.507812 139.300781 500.226562 140.078125 498.902344 140.941406 C 481.566406 152.28125 463.316406 164.714844 463.960938 190.417969 C 467.398438 187.75 473.851562 185.203125 481.710938 182.898438 C 505.960938 175.3125 517.609375 169.085938 522.265625 158.199219 C 525.339844 151.007812 506.132812 155.894531 506.132812 155.894531 C 506.132812 155.894531 532.988281 144.847656 525.507812 138.246094 C 524.339844 137.214844 522.46875 136.652344 520.136719 136.460938 C 515.527344 136.070312 509.117188 137.09375 502.765625 138.5625 Z M 502.765625 138.574219 " fill-opacity="1" fill-rule="nonzero"/><g fill="#333632" fill-opacity="1"><g transform="translate(230.353323, 699.2169)"><g><path d="M 19.0625 -3.859375 C 10.53125 -1.609375 3.609375 -2.644531 -1.703125 -6.96875 C -7.015625 -11.300781 -9.8125 -18.425781 -10.09375 -28.34375 L -11.90625 -85.46875 C -12.238281 -97.800781 -10.1875 -107.703125 -5.75 -115.171875 C -1.320312 -122.640625 5.835938 -127.675781 15.734375 -130.28125 C 24.335938 -132.550781 31.347656 -131.878906 36.765625 -128.265625 C 42.179688 -124.660156 45.019531 -118.132812 45.28125 -108.6875 L 45.953125 -87.34375 L 22.703125 -81.203125 L 22.21875 -99.5625 C 22.0625 -103.113281 21.566406 -105.457031 20.734375 -106.59375 C 19.898438 -107.726562 18.484375 -108.035156 16.484375 -107.515625 C 14.390625 -106.960938 12.96875 -105.8125 12.21875 -104.0625 C 11.476562 -102.3125 11.160156 -99.941406 11.265625 -96.953125 L 13.109375 -34.734375 C 13.296875 -31.484375 13.84375 -29.226562 14.75 -27.96875 C 15.664062 -26.707031 17.03125 -26.3125 18.84375 -26.78125 C 22.46875 -27.738281 24.1875 -31.347656 24 -37.609375 L 23.328125 -59.984375 L 46.875 -66.1875 L 47.65625 -42.8125 C 48.269531 -22.03125 38.738281 -9.046875 19.0625 -3.859375 Z M 19.0625 -3.859375 "/></g></g></g><g fill="#333632" fill-opacity="1"><g transform="translate(294.837458, 682.222993)"><g><path d="M 19.0625 -3.859375 C 9.4375 -1.316406 2.210938 -2.320312 -2.609375 -6.875 C -7.441406 -11.425781 -10.046875 -19.375 -10.421875 -30.71875 L -13.234375 -121.5 L 9.46875 -127.484375 L 12.1875 -37.703125 C 12.34375 -33.765625 12.8125 -30.78125 13.59375 -28.75 C 14.375 -26.726562 15.941406 -26.023438 18.296875 -26.640625 C 20.660156 -27.265625 22.1875 -28.757812 22.875 -31.125 C 23.5625 -33.488281 23.804688 -36.679688 23.609375 -40.703125 L 20.90625 -130.5 L 43.625 -136.484375 L 46.4375 -45.703125 C 46.8125 -34.367188 44.742188 -25.191406 40.234375 -18.171875 C 35.722656 -11.160156 28.664062 -6.390625 19.0625 -3.859375 Z M 19.0625 -3.859375 "/></g></g></g><g fill="#333632" fill-opacity="1"><g transform="translate(359.321594, 665.229085)"><g><path d="M 19.0625 -3.859375 C 10.53125 -1.609375 3.609375 -2.644531 -1.703125 -6.96875 C -7.015625 -11.300781 -9.8125 -18.425781 -10.09375 -28.34375 L -11.90625 -85.46875 C -12.238281 -97.800781 -10.1875 -107.703125 -5.75 -115.171875 C -1.320312 -122.640625 5.835938 -127.675781 15.734375 -130.28125 C 24.335938 -132.550781 31.347656 -131.878906 36.765625 -128.265625 C 42.179688 -124.660156 45.019531 -118.132812 45.28125 -108.6875 L 45.953125 -87.34375 L 22.703125 -81.203125 L 22.21875 -99.5625 C 22.0625 -103.113281 21.566406 -105.457031 20.734375 -106.59375 C 19.898438 -107.726562 18.484375 -108.035156 16.484375 -107.515625 C 14.390625 -106.960938 12.96875 -105.8125 12.21875 -104.0625 C 11.476562 -102.3125 11.160156 -99.941406 11.265625 -96.953125 L 13.109375 -34.734375 C 13.296875 -31.484375 13.84375 -29.226562 14.75 -27.96875 C 15.664062 -26.707031 17.03125 -26.3125 18.84375 -26.78125 C 22.46875 -27.738281 24.1875 -31.347656 24 -37.609375 L 23.328125 -59.984375 L 46.875 -66.1875 L 47.65625 -42.8125 C 48.269531 -22.03125 38.738281 -9.046875 19.0625 -3.859375 Z M 19.0625 -3.859375 "/></g></g></g><g fill="#333632" fill-opacity="1"><g transform="translate(423.805729, 648.235178)"><g><path d="M -8.15625 2.15625 L -12.015625 -121.828125 L 11.109375 -127.921875 L 12.6875 -78.28125 L 22 -130.78125 L 45.53125 -136.984375 L 34.1875 -76.796875 L 52.109375 -13.734375 L 27.890625 -7.34375 L 13.234375 -64.015625 L 15.109375 -3.984375 Z M -8.15625 2.15625 "/></g></g></g><g fill="#333632" fill-opacity="1"><g transform="translate(488.017768, 631.312978)"><g><path d="M 19.734375 -4.03125 C 10.296875 -1.539062 3.03125 -2.707031 -2.0625 -7.53125 C -7.15625 -12.351562 -9.851562 -20.296875 -10.15625 -31.359375 L -12.03125 -90.390625 C -12.320312 -101.085938 -10.101562 -109.796875 -5.375 -116.515625 C -0.65625 -123.234375 6.421875 -127.835938 15.859375 -130.328125 C 25.296875 -132.804688 32.546875 -131.976562 37.609375 -127.84375 C 42.679688 -123.707031 45.367188 -116.289062 45.671875 -105.59375 L 47.53125 -46.5625 C 47.851562 -35.40625 45.660156 -26.148438 40.953125 -18.796875 C 36.242188 -11.441406 29.171875 -6.519531 19.734375 -4.03125 Z M 18.984375 -26.828125 C 21.066406 -27.378906 22.457031 -28.71875 23.15625 -30.84375 C 23.851562 -32.96875 24.132812 -35.753906 24 -39.203125 L 22.15625 -99.828125 C 22.019531 -102.515625 21.609375 -104.613281 20.921875 -106.125 C 20.234375 -107.644531 18.847656 -108.128906 16.765625 -107.578125 C 12.859375 -106.554688 11 -102.914062 11.1875 -96.65625 L 13.03125 -36.171875 C 13.101562 -32.597656 13.566406 -30.003906 14.421875 -28.390625 C 15.285156 -26.773438 16.804688 -26.253906 18.984375 -26.828125 Z M 18.984375 -26.828125 "/></g></g></g><g fill="#333632" fill-opacity="1"><g transform="translate(554.134385, 613.888852)"><g><path d="M 19.734375 -4.03125 C 10.296875 -1.539062 3.03125 -2.707031 -2.0625 -7.53125 C -7.15625 -12.351562 -9.851562 -20.296875 -10.15625 -31.359375 L -12.03125 -90.390625 C -12.320312 -101.085938 -10.101562 -109.796875 -5.375 -116.515625 C -0.65625 -123.234375 6.421875 -127.835938 15.859375 -130.328125 C 25.296875 -132.804688 32.546875 -131.976562 37.609375 -127.84375 C 42.679688 -123.707031 45.367188 -116.289062 45.671875 -105.59375 L 47.53125 -46.5625 C 47.851562 -35.40625 45.660156 -26.148438 40.953125 -18.796875 C 36.242188 -11.441406 29.171875 -6.519531 19.734375 -4.03125 Z M 18.984375 -26.828125 C 21.066406 -27.378906 22.457031 -28.71875 23.15625 -30.84375 C 23.851562 -32.96875 24.132812 -35.753906 24 -39.203125 L 22.15625 -99.828125 C 22.019531 -102.515625 21.609375 -104.613281 20.921875 -106.125 C 20.234375 -107.644531 18.847656 -108.128906 16.765625 -107.578125 C 12.859375 -106.554688 11 -102.914062 11.1875 -96.65625 L 13.03125 -36.171875 C 13.101562 -32.597656 13.566406 -30.003906 14.421875 -28.390625 C 15.285156 -26.773438 16.804688 -26.253906 18.984375 -26.828125 Z M 18.984375 -26.828125 "/></g></g></g><g fill="#333632" fill-opacity="1"><g transform="translate(620.279519, 596.457211)"><g/></g></g><g fill="#333632" fill-opacity="1"><g transform="translate(652.113467, 588.067812)"><g/></g></g><g fill="#333632" fill-opacity="1"><g transform="translate(683.947414, 579.678413)"><g/></g></g><g fill="#333632" fill-opacity="1"><g transform="translate(715.781361, 571.289013)"><g/></g></g><g fill="#333632" fill-opacity="1"><g transform="translate(747.615308, 562.899614)"><g/></g></g><g fill="#333632" fill-opacity="1"><g transform="translate(779.449255, 554.510215)"><g/></g></g><g fill="#333632" fill-opacity="1"><g transform="translate(811.283202, 546.120816)"><g/></g></g><g fill="#ffd42a" fill-opacity="1"><g transform="translate(843.149495, 537.722892)"><g><path d="M -8.15625 2.15625 L -12.015625 -121.828125 L 23.625 -131.21875 L 35.75 -58.15625 L 43.21875 -136.375 L 79.140625 -145.84375 L 83 -21.875 L 61.625 -16.234375 L 58.90625 -105.59375 L 48.171875 -12.6875 L 27.21875 -7.171875 L 10.1875 -92.75 L 12.921875 -3.40625 Z M -8.15625 2.15625 "/></g></g></g><g fill="#ffd42a" fill-opacity="1"><g transform="translate(944.637179, 510.977208)"><g><path d="M -11.28125 2.96875 L -3.859375 -123.96875 L 35.734375 -134.40625 L 50.75 -13.375 L 28.578125 -7.53125 L 26.3125 -27.171875 L 12.171875 -23.4375 L 11.421875 -3.015625 Z M 13.375 -43.671875 L 23.984375 -46.46875 L 16.765625 -108.171875 L 15.671875 -107.875 Z M 13.375 -43.671875 "/></g></g></g><g fill="#ffd42a" fill-opacity="1"><g transform="translate(1010.617776, 493.588929)"><g><path d="M -8.15625 2.15625 L -12.015625 -121.828125 L 12.0625 -128.171875 L 24.609375 -71.671875 L 22.8125 -131 L 45.390625 -136.953125 L 49.25 -12.984375 L 26.390625 -6.953125 L 12.734375 -65.921875 L 14.703125 -3.875 Z M -8.15625 2.15625 "/></g></g></g><g fill="#ffd42a" fill-opacity="1"><g transform="translate(1078.366931, 475.73457)"><g><path d="M -11.28125 2.96875 L -3.859375 -123.96875 L 35.734375 -134.40625 L 50.75 -13.375 L 28.578125 -7.53125 L 26.3125 -27.171875 L 12.171875 -23.4375 L 11.421875 -3.015625 Z M 13.375 -43.671875 L 23.984375 -46.46875 L 16.765625 -108.171875 L 15.671875 -107.875 Z M 13.375 -43.671875 "/></g></g></g><g fill="#ffd42a" fill-opacity="1"><g transform="translate(1144.347528, 458.346291)"><g><path d="M 15.9375 -3.03125 C 7.488281 -0.800781 1.101562 -2.296875 -3.21875 -7.515625 C -7.539062 -12.734375 -9.890625 -21.742188 -10.265625 -34.546875 L -11.96875 -87.9375 C -12.269531 -99.394531 -10.109375 -108.6875 -5.484375 -115.8125 C -0.867188 -122.945312 6.203125 -127.769531 15.734375 -130.28125 C 23.429688 -132.3125 29.457031 -132.253906 33.8125 -130.109375 C 38.164062 -127.960938 41.253906 -123.972656 43.078125 -118.140625 C 44.898438 -112.316406 45.984375 -104.503906 46.328125 -94.703125 L 23.484375 -88.6875 L 23.171875 -99.8125 C 23.066406 -102.78125 22.601562 -104.984375 21.78125 -106.421875 C 20.96875 -107.867188 19.566406 -108.328125 17.578125 -107.796875 C 13.128906 -106.628906 10.988281 -102.957031 11.15625 -96.78125 L 13.03125 -36.75 C 13.132812 -33 13.648438 -30.273438 14.578125 -28.578125 C 15.515625 -26.878906 17.117188 -26.332031 19.390625 -26.9375 C 21.648438 -27.53125 23.222656 -28.914062 24.109375 -31.09375 C 24.992188 -33.269531 25.378906 -36.226562 25.265625 -39.96875 L 24.65625 -57.71875 L 18.390625 -56.0625 L 17.71875 -77.421875 L 46.296875 -84.953125 L 48.578125 -12.796875 L 39.171875 -10.328125 L 34.828125 -19.65625 C 30.929688 -10.863281 24.632812 -5.320312 15.9375 -3.03125 Z M 15.9375 -3.03125 "/></g></g></g><g fill="#ffd42a" fill-opacity="1"><g transform="translate(1210.328125, 440.958011)"><g><path d="M -8.15625 2.15625 L -12.015625 -121.828125 L 34.78125 -134.15625 L 35.5625 -110.203125 L 12.5625 -104.140625 L 13.25 -80.03125 L 35.296875 -85.84375 L 36.078125 -62.46875 L 14.03125 -56.671875 L 14.828125 -28.203125 L 39.328125 -34.65625 L 40.125 -10.578125 Z M -8.15625 2.15625 "/></g></g></g><g fill="#ffd42a" fill-opacity="1"><g transform="translate(1266.377642, 426.186932)"><g><path d="M -12.015625 -121.828125 L 23.890625 -131.28125 C 29.609375 -132.789062 34.078125 -132.585938 37.296875 -130.671875 C 40.523438 -128.765625 42.753906 -125.472656 43.984375 -120.796875 C 45.210938 -116.117188 45.96875 -109.9375 46.25 -102.25 C 46.445312 -95.226562 45.738281 -89.515625 44.125 -85.109375 C 42.519531 -80.703125 39.601562 -77.164062 35.375 -74.5 C 38.914062 -74.65625 41.53125 -73.453125 43.21875 -70.890625 C 44.914062 -68.335938 45.851562 -64.515625 46.03125 -59.421875 L 47.21875 -12.4375 L 24.359375 -6.421875 L 22.78125 -54.890625 C 22.726562 -58.367188 22.035156 -60.414062 20.703125 -61.03125 C 19.378906 -61.65625 17.039062 -61.523438 13.6875 -60.640625 L 15.515625 -4.09375 L -8.15625 2.15625 Z M 18.828125 -83.6875 C 22.109375 -84.550781 23.628906 -88.734375 23.390625 -96.234375 C 23.304688 -99.503906 23.082031 -101.914062 22.71875 -103.46875 C 22.363281 -105.019531 21.8125 -106.015625 21.0625 -106.453125 C 20.320312 -106.898438 19.269531 -106.941406 17.90625 -106.578125 L 12.453125 -105.140625 L 13.265625 -82.21875 Z M 18.828125 -83.6875 "/></g></g></g></svg>